<?xml version="1.0" encoding="UTF-8" standalone="no"?>
<!-- Generator: Adobe Illustrator 19.0.0, SVG Export Plug-In . SVG Version: 6.00 Build 0)  -->

<svg
   xmlns:dc="http://purl.org/dc/elements/1.1/"
   xmlns:cc="http://creativecommons.org/ns#"
   xmlns:rdf="http://www.w3.org/1999/02/22-rdf-syntax-ns#"
   xmlns:svg="http://www.w3.org/2000/svg"
   xmlns="http://www.w3.org/2000/svg"
   xmlns:sodipodi="http://sodipodi.sourceforge.net/DTD/sodipodi-0.dtd"
   xmlns:inkscape="http://www.inkscape.org/namespaces/inkscape"
   version="1.1"
   id="Layer_1"
   x="0px"
   y="0px"
   viewBox="0 0 151.10478 67.29563"
   xml:space="preserve"
   width="1.5740081in"
   height="0.70099616in"
   sodipodi:docname="gooddeedslogo_blk.svg"
   inkscape:version="0.92.4 (5da689c313, 2019-01-14)"><metadata
   id="metadata36"><rdf:RDF><cc:Work
       rdf:about=""><dc:format>image/svg+xml</dc:format><dc:type
         rdf:resource="http://purl.org/dc/dcmitype/StillImage" /><dc:title></dc:title></cc:Work></rdf:RDF></metadata><defs
   id="defs34" /><sodipodi:namedview
   pagecolor="#ffffff"
   bordercolor="#666666"
   borderopacity="1"
   objecttolerance="10"
   gridtolerance="10"
   guidetolerance="10"
   inkscape:pageopacity="0"
   inkscape:pageshadow="2"
   inkscape:window-width="3840"
   inkscape:window-height="2066"
   id="namedview32"
   showgrid="false"
   inkscape:snap-bbox="true"
   inkscape:zoom="7.1445312"
   inkscape:cx="158.40856"
   inkscape:cy="28.944525"
   inkscape:window-x="3829"
   inkscape:window-y="-11"
   inkscape:window-maximized="1"
   inkscape:current-layer="g4605"
   showguides="true"
   inkscape:guide-bbox="true"
   units="in"><sodipodi:guide
     position="-116.01921,-446.79986"
     orientation="0,1"
     id="guide58"
     inkscape:locked="false" /><sodipodi:guide
     position="557.78048,-556.06467"
     orientation="1,0"
     id="guide60"
     inkscape:locked="false" /></sodipodi:namedview>
<linearGradient
   id="SVGID_1_"
   gradientUnits="userSpaceOnUse"
   x1="256.00021"
   y1="0.00013742151"
   x2="256.00021"
   y2="512.00012"
   gradientTransform="translate(0,-4.2463868e-4)">
	<stop
   offset="0"
   style="stop-color:#2AF598"
   id="stop24" />
	<stop
   offset="1"
   style="stop-color:#009EFD"
   id="stop26" />
</linearGradient>
















<g
   id="g4605"
   transform="matrix(0.22255909,0,0,0.22255909,-0.41996825,-0.27983986)"><path
     inkscape:connector-curvature="0"
     id="path29"
     d="m 134.69952,103.86291 c 16.11846,14.9527 33.77766,25.44303 37.15341,27.3939 1.37886,0.797 4.44739,2.55547 4.44739,2.55547 l 5.1456,2.94906 5.14457,-2.95112 c 0,0 3.06336,-1.75745 4.44066,-2.55341 3.37679,-1.95087 21.03703,-12.44275 37.15498,-27.3939 18.40293,-17.070632 27.7337,-33.432695 27.7337,-48.631085 0,-25.598187 -17.83609,-44.177482 -42.41022,-44.177482 -16.34501,0 -26.37089,6.472213 -32.06628,12.260174 -5.69537,-5.787961 -15.72126,-12.260174 -32.06626,-12.260174 -24.57414,0 -42.41021,18.579295 -42.41021,44.177482 0,15.19839 9.33075,31.560453 27.73266,48.631085 z m 14.43655,-72.114967 c 15.77245,0.235329 32.30726,31.026183 32.30726,31.026183 0,0 16.84566,-31.031867 32.06628,-31.031867 12.99304,0 21.72231,9.439373 21.72231,23.489566 0,19.138398 -32.66518,45.291025 -53.78961,57.669635 -21.12393,-12.37861 -53.78754,-38.530206 -53.78754,-57.669635 0,-13.96175 8.62272,-23.366995 21.4813,-23.483882 z M 137.95373,186.94661 c 0,2.73907 1.35556,5.29869 3.62607,6.84562 2.74942,1.87381 5.07682,2.83373 5.96742,3.02353 4.01605,0.58703 50.03787,5.50661 80.2148,8.6941 l -2.17275,20.57311 c -23.50819,-2.48256 -78.52924,-8.32069 -81.71777,-8.90771 -5.61936,-1.03387 -11.14717,-4.38325 -13.94159,-6.28757 -2.66305,-1.81485 -4.95527,-4.03621 -6.8389,-6.54049 l -0.0952,0.0972 -49.64168,-48.71693 c -1.972593,-1.93536 -4.588059,-2.97803 -7.342663,-2.96148 -2.762353,0.0258 -5.349888,1.12646 -7.284728,3.09854 -1.935871,1.97208 -2.987341,4.57978 -2.961474,7.34265 0.02585,2.76286 1.126452,5.35041 3.09853,7.28525 l 76.770775,75.3402 c 6.13501,6.02279 14.2488,9.33905 22.84618,9.33905 H 299.8816 v 20.68791 H 158.48079 c -14.0507,0 -27.31064,-5.41971 -37.33755,-15.26096 L 44.372992,185.25846 c -5.916232,-5.80555 -9.216991,-13.56764 -9.29508,-21.85626 -0.07761,-8.2886 3.076807,-16.11122 8.882351,-22.02694 5.805544,-5.91569 13.567137,-9.2175 21.856259,-9.29559 8.271032,-0.0885 16.111236,3.07681 22.027468,8.88287 l 32.88188,32.26952 c 4.89734,-9.07061 14.49188,-15.24802 25.50302,-15.24802 l 71.55639,-0.0273 c 0.51514,0.004 1.02354,0.004 1.53556,0.009 h 0.003 c 25.20926,0.3041 49.37067,8.22034 69.87343,22.89169 l 10.6853,7.64521 v 25.43941 l -22.7241,-16.26069 C 260.1159,185.48582 240.03208,178.90551 219.07729,178.65208 v 0 c -0.4267,-0.004 -0.84718,-0.009 -1.2811,-0.007 l -71.56209,0.0273 c -4.56684,-5e-4 -8.27929,3.71194 -8.27929,8.27466 z"
     style="fill:#000000;fill-opacity:1;stroke-width:0.51719785" /><g
     id="text40"
     style="font-style:normal;font-weight:normal;font-size:40px;line-height:1.25;font-family:sans-serif;letter-spacing:0px;word-spacing:0px;opacity:1;fill:#ffffff;fill-opacity:1;stroke:none"
     aria-label="Good"
     transform="matrix(0.51719784,0,0,0.51719784,35.07635,11.054563)"><path
       id="path4573"
       style="font-style:normal;font-variant:normal;font-weight:normal;font-stretch:normal;font-size:192px;font-family:Poppins;-inkscape-font-specification:Poppins;fill:#ffffff;fill-opacity:1"
       d="m 626.33074,203.58472 c -40.32,0 -68.544,28.416 -68.544,68.736 0,40.32 28.416,68.544 68.736,68.544 35.52,0 57.984,-23.232 64.896,-46.464 v -30.528 h -71.424 v 24.192 h 41.664 c -4.992,15.168 -16.32,23.808 -32.64,23.808 -23.616,0 -37.824,-14.592 -37.824,-39.552 0,-23.424 14.016,-38.4 35.136,-38.4 12.288,0 21.504,4.8 26.496,13.824 h 36.288 c -7.104,-27.648 -30.528,-44.16 -62.784,-44.16 z"
       inkscape:connector-curvature="0" /><path
       id="path4575"
       style="font-style:normal;font-variant:normal;font-weight:normal;font-stretch:normal;font-size:192px;font-family:Poppins;-inkscape-font-specification:Poppins;fill:#ffffff;fill-opacity:1"
       d="m 814.43674,286.33672 c 0,-33.984 -24.192,-55.104 -55.68,-55.104 -31.296,0 -55.68,21.12 -55.68,55.104 0,33.984 23.808,55.104 55.296,55.104 31.488,0 56.064,-21.12 56.064,-55.104 z m -77.952,0 c 0,-18.24 10.368,-26.688 22.272,-26.688 11.52,0 22.272,8.448 22.272,26.688 0,18.048 -10.944,26.688 -22.656,26.688 -11.904,0 -21.888,-8.64 -21.888,-26.688 z"
       inkscape:connector-curvature="0" /><path
       id="path4577"
       style="font-style:normal;font-variant:normal;font-weight:normal;font-stretch:normal;font-size:192px;font-family:Poppins;-inkscape-font-specification:Poppins;fill:#ffffff;fill-opacity:1"
       d="m 936.68674,286.33672 c 0,-33.984 -24.192,-55.104 -55.68,-55.104 -31.296,0 -55.68,21.12 -55.68,55.104 0,33.984 23.808,55.104 55.296,55.104 31.488,0 56.064,-21.12 56.064,-55.104 z m -77.952,0 c 0,-18.24 10.368,-26.688 22.272,-26.688 11.52,0 22.272,8.448 22.272,26.688 0,18.048 -10.944,26.688 -22.656,26.688 -11.904,0 -21.888,-8.64 -21.888,-26.688 z"
       inkscape:connector-curvature="0" /><path
       id="path4579"
       style="font-style:normal;font-variant:normal;font-weight:normal;font-stretch:normal;font-size:192px;font-family:Poppins;-inkscape-font-specification:Poppins;fill:#ffffff;fill-opacity:1"
       d="m 947.57674,286.14472 c 0,33.792 20.928,55.296 47.232,55.296 15.74396,0 27.07196,-7.104 33.02396,-16.896 v 15.36 h 32.832 v -142.08 h -32.832 v 49.728 c -6.528,-9.792 -18.816,-16.32 -33.02396,-16.32 -26.304,0 -47.232,21.12 -47.232,54.912 z m 80.25596,0.192 c 0,17.088 -10.944,26.496 -23.424,26.496 -12.28796,0 -23.42396,-9.6 -23.42396,-26.688 0,-17.088 11.136,-26.304 23.42396,-26.304 12.48,0 23.424,9.408 23.424,26.496 z"
       inkscape:connector-curvature="0" /></g><g
     id="text56"
     style="font-style:normal;font-weight:normal;font-size:40px;line-height:1.25;font-family:sans-serif;letter-spacing:0px;word-spacing:0px;fill:#000000;fill-opacity:1;stroke:none"
     aria-label="Deeds"
     transform="matrix(0.51719784,0,0,0.51719784,35.07635,11.054563)"><path
       id="path4582"
       style="font-style:normal;font-variant:normal;font-weight:normal;font-stretch:normal;font-size:192px;font-family:Poppins;-inkscape-font-specification:Poppins"
       d="m 606.90867,374.97625 h -50.496 v 134.784 h 50.496 c 43.008,0 70.656,-27.456 70.656,-67.392 0,-40.128 -27.648,-67.392 -70.656,-67.392 z m -17.664,106.368 v -78.336 h 15.552 c 24.768,0 39.36,14.592 39.36,39.36 0,24.768 -14.592,38.976 -39.36,38.976 z"
       inkscape:connector-curvature="0" /><path
       id="path4584"
       style="font-style:normal;font-variant:normal;font-weight:normal;font-stretch:normal;font-size:192px;font-family:Poppins;-inkscape-font-specification:Poppins"
       d="m 743.14467,427.39225 c 10.944,0 20.16,6.72 20.16,18.432 h -41.088 c 1.92,-11.904 10.176,-18.432 20.928,-18.432 z m 51.264,46.848 h -34.944 c -2.688,5.76 -7.872,10.368 -17.088,10.368 -10.56,0 -19.2,-6.528 -20.352,-20.544 h 74.304 c 0.384,-3.264 0.576,-6.528 0.576,-9.6 0,-32.64 -22.08,-53.376 -53.376,-53.376 -31.872,0 -54.144,21.12 -54.144,55.104 0,33.984 22.656,55.104 54.144,55.104 26.688,0 45.696,-16.128 50.88,-37.056 z"
       inkscape:connector-curvature="0" /><path
       id="path4586"
       style="font-style:normal;font-variant:normal;font-weight:normal;font-stretch:normal;font-size:192px;font-family:Poppins;-inkscape-font-specification:Poppins"
       d="m 861.26967,427.39225 c 10.944,0 20.16,6.72 20.16,18.432 h -41.088 c 1.92,-11.904 10.176,-18.432 20.928,-18.432 z m 51.264,46.848 h -34.944 c -2.688,5.76 -7.872,10.368 -17.088,10.368 -10.56,0 -19.2,-6.528 -20.352,-20.544 h 74.304 c 0.384,-3.264 0.576,-6.528 0.576,-9.6 0,-32.64 -22.08,-53.376 -53.376,-53.376 -31.872,0 -54.144,21.12 -54.144,55.104 0,33.984 22.656,55.104 54.144,55.104 26.688,0 45.696,-16.128 50.88,-37.056 z"
       inkscape:connector-curvature="0" /><path
       id="path4588"
       style="font-style:normal;font-variant:normal;font-weight:normal;font-stretch:normal;font-size:192px;font-family:Poppins;-inkscape-font-specification:Poppins"
       d="m 925.63467,456.00025 c 0,33.792 20.928,55.296 47.232,55.296 15.744,0 27.072,-7.104 33.02403,-16.896 v 15.36 h 32.832 v -142.08 h -32.832 v 49.728 c -6.52803,-9.792 -18.81603,-16.32 -33.02403,-16.32 -26.304,0 -47.232,21.12 -47.232,54.912 z m 80.25603,0.192 c 0,17.088 -10.94403,26.496 -23.42403,26.496 -12.288,0 -23.424,-9.6 -23.424,-26.688 0,-17.088 11.136,-26.304 23.424,-26.304 12.48,0 23.42403,9.408 23.42403,26.496 z"
       inkscape:connector-curvature="0" /><path
       id="path4590"
       style="font-style:normal;font-variant:normal;font-weight:normal;font-stretch:normal;font-size:192px;font-family:Poppins;-inkscape-font-specification:Poppins"
       d="m 1149.6387,478.65625 c -0.576,-39.936 -58.56,-27.84 -58.56,-44.928 0,-5.184 4.224,-8.256 11.904,-8.256 9.216,0 14.784,4.8 15.744,12.096 h 30.336 c -2.112,-21.12 -17.472,-36.48 -45.12,-36.48 -28.032,0 -43.584,14.976 -43.584,33.216 0,39.36 58.368,26.88 58.368,44.16 0,4.8 -4.416,8.64 -12.864,8.64 -9.024,0 -15.744,-4.992 -16.512,-12.48 h -32.448 c 1.536,20.736 20.736,36.672 49.344,36.672 26.88,0 43.392,-14.016 43.392,-32.64 z"
       inkscape:connector-curvature="0" /></g></g></svg>